<svg id="visual" viewBox="0 0 960 540" width="960" height="540" xmlns="http://www.w3.org/2000/svg" xmlns:xlink="http://www.w3.org/1999/xlink" version="1.1"><rect x="0" y="0" width="960" height="540" fill="#152243"></rect><defs><linearGradient id="grad1_0" x1="43.8%" y1="100%" x2="100%" y2="0%"><stop offset="14.444444444444446%" stop-color="#086ff4" stop-opacity="1"></stop><stop offset="85.55555555555554%" stop-color="#086ff4" stop-opacity="1"></stop></linearGradient></defs><defs><linearGradient id="grad1_1" x1="43.8%" y1="100%" x2="100%" y2="0%"><stop offset="14.444444444444446%" stop-color="#086ff4" stop-opacity="1"></stop><stop offset="85.55555555555554%" stop-color="#125fce" stop-opacity="1"></stop></linearGradient></defs><defs><linearGradient id="grad1_2" x1="43.8%" y1="100%" x2="100%" y2="0%"><stop offset="14.444444444444446%" stop-color="#174fa9" stop-opacity="1"></stop><stop offset="85.55555555555554%" stop-color="#125fce" stop-opacity="1"></stop></linearGradient></defs><defs><linearGradient id="grad1_3" x1="43.8%" y1="100%" x2="100%" y2="0%"><stop offset="14.444444444444446%" stop-color="#174fa9" stop-opacity="1"></stop><stop offset="85.55555555555554%" stop-color="#193f85" stop-opacity="1"></stop></linearGradient></defs><defs><linearGradient id="grad1_4" x1="43.8%" y1="100%" x2="100%" y2="0%"><stop offset="14.444444444444446%" stop-color="#183063" stop-opacity="1"></stop><stop offset="85.55555555555554%" stop-color="#193f85" stop-opacity="1"></stop></linearGradient></defs><defs><linearGradient id="grad1_5" x1="43.8%" y1="100%" x2="100%" y2="0%"><stop offset="14.444444444444446%" stop-color="#183063" stop-opacity="1"></stop><stop offset="85.55555555555554%" stop-color="#152243" stop-opacity="1"></stop></linearGradient></defs><defs><linearGradient id="grad2_0" x1="0%" y1="100%" x2="56.3%" y2="0%"><stop offset="14.444444444444446%" stop-color="#086ff4" stop-opacity="1"></stop><stop offset="85.55555555555554%" stop-color="#086ff4" stop-opacity="1"></stop></linearGradient></defs><defs><linearGradient id="grad2_1" x1="0%" y1="100%" x2="56.3%" y2="0%"><stop offset="14.444444444444446%" stop-color="#125fce" stop-opacity="1"></stop><stop offset="85.55555555555554%" stop-color="#086ff4" stop-opacity="1"></stop></linearGradient></defs><defs><linearGradient id="grad2_2" x1="0%" y1="100%" x2="56.3%" y2="0%"><stop offset="14.444444444444446%" stop-color="#125fce" stop-opacity="1"></stop><stop offset="85.55555555555554%" stop-color="#174fa9" stop-opacity="1"></stop></linearGradient></defs><defs><linearGradient id="grad2_3" x1="0%" y1="100%" x2="56.3%" y2="0%"><stop offset="14.444444444444446%" stop-color="#193f85" stop-opacity="1"></stop><stop offset="85.55555555555554%" stop-color="#174fa9" stop-opacity="1"></stop></linearGradient></defs><defs><linearGradient id="grad2_4" x1="0%" y1="100%" x2="56.3%" y2="0%"><stop offset="14.444444444444446%" stop-color="#193f85" stop-opacity="1"></stop><stop offset="85.55555555555554%" stop-color="#183063" stop-opacity="1"></stop></linearGradient></defs><defs><linearGradient id="grad2_5" x1="0%" y1="100%" x2="56.3%" y2="0%"><stop offset="14.444444444444446%" stop-color="#152243" stop-opacity="1"></stop><stop offset="85.55555555555554%" stop-color="#183063" stop-opacity="1"></stop></linearGradient></defs><g transform="translate(960, 540)"><path d="M-459 0C-452.6 -90 -446.2 -180 -397.5 -229.5C-348.8 -279 -257.8 -288.1 -184.5 -319.6C-111.2 -351.1 -55.6 -405 0 -459L0 0Z" fill="#172953"></path><path d="M-382.5 0C-377.2 -75 -371.8 -150 -331.3 -191.3C-290.7 -232.5 -214.8 -240 -153.8 -266.3C-92.7 -292.6 -46.3 -337.5 0 -382.5L0 0Z" fill="#193874"></path><path d="M-306 0C-301.7 -60 -297.5 -120 -265 -153C-232.5 -186 -171.9 -192 -123 -213C-74.1 -234 -37.1 -270 0 -306L0 0Z" fill="#184797"></path><path d="M-229.5 0C-226.3 -45 -223.1 -90 -198.8 -114.8C-174.4 -139.5 -128.9 -144 -92.3 -159.8C-55.6 -175.5 -27.8 -202.5 0 -229.5L0 0Z" fill="#1557bb"></path><path d="M-153 0C-150.9 -30 -148.7 -60 -132.5 -76.5C-116.3 -93 -85.9 -96 -61.5 -106.5C-37.1 -117 -18.5 -135 0 -153L0 0Z" fill="#0e67e1"></path><path d="M-76.5 0C-75.4 -15 -74.4 -30 -66.3 -38.3C-58.1 -46.5 -43 -48 -30.8 -53.3C-18.5 -58.5 -9.3 -67.5 0 -76.5L0 0Z" fill="#086ff4"></path></g><g transform="translate(0, 0)"><path d="M459 0C395.3 50 331.7 100 301.4 174C271.1 248 274.2 346 229.5 397.5C184.8 449 92.4 454 0 459L0 0Z" fill="#172953"></path><path d="M382.5 0C329.4 41.7 276.4 83.3 251.1 145C225.9 206.7 228.5 288.3 191.3 331.3C154 374.2 77 378.3 0 382.5L0 0Z" fill="#193874"></path><path d="M306 0C263.6 33.3 221.1 66.7 200.9 116C180.7 165.3 182.8 230.7 153 265C123.2 299.3 61.6 302.7 0 306L0 0Z" fill="#184797"></path><path d="M229.5 0C197.7 25 165.8 50 150.7 87C135.5 124 137.1 173 114.8 198.8C92.4 224.5 46.2 227 0 229.5L0 0Z" fill="#1557bb"></path><path d="M153 0C131.8 16.7 110.6 33.3 100.5 58C90.4 82.7 91.4 115.3 76.5 132.5C61.6 149.7 30.8 151.3 0 153L0 0Z" fill="#0e67e1"></path><path d="M76.5 0C65.9 8.3 55.3 16.7 50.2 29C45.2 41.3 45.7 57.7 38.3 66.3C30.8 74.8 15.4 75.7 0 76.5L0 0Z" fill="#086ff4"></path></g></svg>